# xmcd CD database file
#
# Track frame offsets:
#	187
#	19202
#	35392
#	50992
#	67660
#	86075
#	99852
#	114710
#	129855
#	145860
#	161772
#
# Disc length: 2338 seconds
#
# Revision: 10
# Processed by: cddbd v1.5.2PL0 Copyright (c) Steve Scherf et al.
# Submitted via: CDex 1.50
#
DISCID=8e09200b
DTITLE=Keith Whitley - Greatest Hits
DYEAR=1990
DGENRE=Country
TTITLE0=Don't Close Your Eyes
TTITLE1=I'm No Stranger To The Rain
TTITLE2=Miami, My Amy
TTITLE3=When You Say Nothing At All
TTITLE4=It Ain't Nothin'
TTITLE5=I'm Over You
TTITLE6=I Wonder Do You Think Of Me
TTITLE7=Ten Feet Away
TTITLE8=Talk To Me Texas
TTITLE9='Til A Tear Becomes A Rose
TTITLE10=Tell Lorrie I Love Her
EXTD=YEAR: 1990
EXTT0=
EXTT1=
EXTT2=
EXTT3=
EXTT4=
EXTT5=
EXTT6=
EXTT7=
EXTT8=
EXTT9=
EXTT10=
PLAYORDER=
